<?xml version="1.0" standalone="no"?>
<!DOCTYPE svg PUBLIC "-//W3C//DTD SVG 20010904//EN"
 "http://www.w3.org/TR/2001/REC-SVG-20010904/DTD/svg10.dtd">
<svg version="1.0" xmlns="http://www.w3.org/2000/svg"
 width="512.000000pt" height="512.000000pt" viewBox="0 0 512.000000 512.000000"
 preserveAspectRatio="xMidYMid meet">
<metadata>
Created by potrace 1.14, written by Peter Selinger 2001-2017
</metadata>
<g transform="translate(0.000000,512.000000) scale(0.100000,-0.100000)"
fill="#000000" stroke="none">
<path d="M299 5104 c-116 -35 -204 -112 -258 -224 l-36 -75 -2 -1810 c-2
-1198 1 -1825 8 -1855 23 -105 100 -209 194 -264 84 -49 135 -56 441 -56 154
0 294 -4 310 -9 16 -5 97 -31 179 -56 83 -26 220 -68 305 -95 85 -27 216 -67
290 -90 74 -23 146 -45 160 -50 36 -13 435 -137 640 -200 58 -18 139 -44 180
-57 41 -14 89 -29 105 -33 26 -7 309 -95 629 -196 99 -31 119 -34 231 -34 154
0 190 14 290 109 65 62 88 118 199 481 19 63 60 194 90 290 133 426 261 836
303 970 25 80 56 179 68 220 13 41 55 176 94 300 38 124 104 335 146 470 42
135 106 340 142 455 36 116 74 239 84 275 53 177 18 326 -102 441 -77 74 -26
56 -929 337 l-575 179 -1 91 c-3 163 -18 231 -68 310 -55 88 -154 158 -257
181 -29 7 -533 10 -1429 10 -1171 0 -1392 -3 -1431 -15z m2853 -206 c47 -21
94 -70 110 -117 10 -29 13 -392 13 -1821 l0 -1785 -24 -42 c-28 -48 -84 -91
-133 -102 -18 -4 -645 -7 -1393 -6 -1503 1 -1395 -3 -1462 65 -18 18 -38 49
-45 69 -9 28 -12 435 -12 1816 l0 1780 22 45 c28 54 86 98 143 108 23 4 650 7
1393 6 1213 0 1355 -2 1388 -16z m711 -704 c908 -282 934 -291 972 -320 44
-33 75 -98 75 -155 0 -30 -61 -240 -186 -639 -102 -327 -187 -602 -189 -610
-8 -30 -494 -1587 -547 -1750 -16 -52 -31 -102 -33 -110 -7 -35 -87 -277 -101
-306 -32 -68 -104 -113 -179 -114 -23 0 -158 37 -315 86 -151 47 -302 94 -335
104 -33 10 -148 46 -255 80 -192 60 -332 103 -580 180 -181 56 -479 150 -525
165 -34 12 64 14 705 15 794 0 803 1 898 49 48 25 126 102 158 157 57 97 55
16 55 1717 0 862 3 1567 6 1567 3 0 172 -52 376 -116z"/>
<path d="M2603 4537 c-34 -94 -98 -274 -142 -398 -45 -124 -81 -232 -81 -238
0 -8 17 -11 51 -9 l52 3 29 85 c16 47 33 89 38 93 9 10 318 12 328 2 4 -4 21
-46 37 -93 l30 -87 53 -3 c28 -2 52 0 52 3 0 7 -22 72 -83 245 -25 69 -77 220
-118 335 -40 116 -77 216 -82 223 -5 6 -30 12 -56 12 l-46 0 -62 -173z m176
-167 c27 -80 52 -155 56 -167 l6 -23 -129 0 -129 0 49 143 c82 236 81 233 90
211 4 -10 29 -84 57 -164z"/>
<path d="M1664 3623 c-157 -130 -326 -319 -384 -433 -81 -158 -46 -324 83
-393 36 -19 58 -22 147 -22 83 0 112 4 138 18 19 10 35 17 36 15 2 -2 -30 -81
-71 -177 -41 -95 -71 -176 -68 -179 8 -9 383 -8 391 1 4 3 -17 62 -46 129 -29
68 -63 148 -75 179 l-23 57 37 -22 c31 -18 52 -21 141 -21 89 0 111 3 145 22
56 30 93 71 114 129 58 153 -19 316 -263 560 -97 96 -210 194 -225 194 -4 0
-38 -26 -77 -57z"/>
<path d="M433 2033 c3 -10 28 -83 57 -163 52 -147 94 -267 170 -485 57 -162
52 -155 109 -155 l48 0 141 398 c78 218 142 403 142 410 0 8 -16 12 -48 12
-55 0 -52 4 -92 -117 -19 -58 -29 -73 -45 -74 -11 0 -85 -1 -165 -2 l-145 -2
-35 95 -35 95 -54 3 c-48 3 -53 1 -48 -15z m410 -431 c-30 -86 -58 -167 -60
-180 -3 -12 -8 -24 -12 -26 -5 -4 -114 291 -129 350 -2 8 36 11 127 12 l130 1
-56 -157z"/>
<path d="M4057 3487 l-257 -342 27 -11 c71 -29 67 -30 133 56 44 58 66 79 78
76 9 -3 78 -24 152 -47 74 -23 138 -44 142 -48 4 -3 8 -48 9 -100 l1 -93 32
-13 c70 -29 71 -28 70 55 -2 72 -13 412 -19 550 -2 36 -4 103 -5 149 l-3 83
-33 14 c-18 8 -41 14 -51 14 -12 0 -106 -117 -276 -343z m270 1 c2 -95 5 -181
7 -190 2 -10 1 -18 -2 -18 -9 0 -236 71 -241 76 -4 4 223 312 228 308 2 -2 5
-81 8 -176z"/>
</g>
</svg>
